<?xml version="1.0" encoding="UTF-8"?>
<svg id="_Слой_1" data-name="Слой 1" xmlns="http://www.w3.org/2000/svg" xmlns:xlink="http://www.w3.org/1999/xlink" viewBox="0 0 127.42 41.78">
  <defs>
    <style>
      .cls-1 {
        fill: url(#_Безымянный_градиент_699);
        stroke: url(#_Безымянный_градиент_430);
        stroke-miterlimit: 10;
        stroke-width: 3px;
      }

      .cls-2 {
        fill: url(#_Безымянный_градиент_705-4);
      }

      .cls-3 {
        fill: url(#_Безымянный_градиент_705);
      }

      .cls-4 {
        fill: url(#_Безымянный_градиент_705-2);
      }

      .cls-5 {
        fill: url(#_Безымянный_градиент_705-5);
      }

      .cls-6 {
        fill: url(#_Безымянный_градиент_705-3);
      }
    </style>
    <linearGradient id="_Безымянный_градиент_705" data-name="Безымянный градиент 705" x1="16.42" y1="25.99" x2="3.25" y2="3.18" gradientUnits="userSpaceOnUse">
      <stop offset="0" stop-color="#cbdff3"/>
      <stop offset="0" stop-color="#c5d5ef"/>
      <stop offset="0" stop-color="#b6bce6"/>
      <stop offset="0" stop-color="#9d92d7"/>
      <stop offset="0" stop-color="#7c59c3"/>
      <stop offset="0" stop-color="#6736b7"/>
      <stop offset=".99" stop-color="#9f46f2"/>
    </linearGradient>
    <linearGradient id="_Безымянный_градиент_705-2" data-name="Безымянный градиент 705" x1="43.27" y1="33.96" x2="28.59" y2="8.53" xlink:href="#_Безымянный_градиент_705"/>
    <linearGradient id="_Безымянный_градиент_705-3" data-name="Безымянный градиент 705" x1="66.91" y1="27.36" x2="56.11" y2="8.65" xlink:href="#_Безымянный_градиент_705"/>
    <linearGradient id="_Безымянный_градиент_705-4" data-name="Безымянный градиент 705" x1="92.64" y1="32.21" x2="76.14" y2="3.62" xlink:href="#_Безымянный_градиент_705"/>
    <linearGradient id="_Безымянный_градиент_705-5" data-name="Безымянный градиент 705" x1="114.78" y1="31.74" x2="102.46" y2="10.4" xlink:href="#_Безымянный_градиент_705"/>
    <linearGradient id="_Безымянный_градиент_699" data-name="Безымянный градиент 699" x1="124.26" y1="33.97" x2="122.15" y2="30.32" gradientUnits="userSpaceOnUse">
      <stop offset="0" stop-color="#cbdff3"/>
      <stop offset="0" stop-color="#c5d5ef"/>
      <stop offset="0" stop-color="#b6bce6"/>
      <stop offset="0" stop-color="#9d92d7"/>
      <stop offset="0" stop-color="#7c59c3"/>
      <stop offset="0" stop-color="#6736b7"/>
      <stop offset=".99" stop-color="#9f46f2"/>
    </linearGradient>
    <linearGradient id="_Безымянный_градиент_430" data-name="Безымянный градиент 430" x1="118.99" y1="32.14" x2="127.42" y2="32.14" gradientUnits="userSpaceOnUse">
      <stop offset="0" stop-color="#554595"/>
      <stop offset="0" stop-color="#68049e"/>
      <stop offset="1" stop-color="#69009f"/>
    </linearGradient>
  </defs>
  <g>
    <path class="cls-3" d="M25.57,9.29c0,1.69-.3,3.32-.89,4.89s-1.49,2.96-2.7,4.16-2.72,2.16-4.56,2.88-4,1.08-6.48,1.08h-3.23l-1.95,9.84H0L6.14,1.51h8.7c1.98,0,3.66.21,5.03.64s2.47,1.01,3.32,1.73,1.45,1.56,1.83,2.5.56,1.91.56,2.91ZM19.45,10.18c0-.5-.07-.98-.22-1.45s-.42-.88-.81-1.24-.93-.65-1.62-.87-1.58-.33-2.67-.33h-3.21l-2.27,11.23h3.09c1.17,0,2.23-.19,3.19-.57s1.76-.91,2.43-1.57,1.18-1.44,1.55-2.33.55-1.84.55-2.86Z"/>
    <path class="cls-4" d="M52.3,8.12c-.12,1.02-.28,2.01-.47,2.98s-.43,1.95-.73,2.93-.66,1.99-1.09,3.02-.95,2.12-1.56,3.27-1.32,2.37-2.12,3.67-1.73,2.7-2.78,4.2c-1.34,1.92-2.59,3.59-3.73,5.02s-2.21,2.63-3.21,3.63-1.94,1.82-2.81,2.47-1.73,1.15-2.55,1.51-1.64.61-2.43.75-1.59.21-2.4.21c-.58,0-1.09-.02-1.52-.06s-.83-.08-1.17-.13v-4.85c.45.08.93.14,1.42.18s.98.06,1.46.06c.66,0,1.26-.08,1.82-.23s1.12-.43,1.69-.82,1.17-.91,1.79-1.56,1.33-1.46,2.11-2.43l-4.71-23.81h5.95l3.35,18.4c.94-1.39,1.77-2.67,2.5-3.84s1.36-2.27,1.89-3.29.98-2,1.36-2.93.68-1.84.93-2.74.44-1.8.59-2.72.26-1.87.34-2.87h6.09Z"/>
    <path class="cls-6" d="M69.57,17.86c.22-.95.34-1.75.35-2.39s-.06-1.15-.23-1.54-.43-.66-.79-.82-.79-.25-1.3-.25c-.75,0-1.52.31-2.31.93s-1.54,1.43-2.25,2.44-1.35,2.16-1.91,3.47-.98,2.64-1.27,4.02l-1.71,8.7h-5.86l2.53-12.73c.09-.48.19-1.02.28-1.59s.19-1.29.29-2.12.21-1.85.34-3.04.27-2.63.45-4.34h4.64l-.23,4.66c.34-.62.79-1.25,1.32-1.86s1.16-1.17,1.86-1.66,1.5-.89,2.38-1.2,1.85-.46,2.89-.46c1.36,0,2.52.22,3.48.66s1.71,1.07,2.24,1.9.85,1.85.95,3.06-.03,2.6-.39,4.16h-5.77Z"/>
    <path class="cls-2" d="M83.05,25.83c-.22,1.12-.13,1.96.26,2.52s1.1.83,2.13.83c1.14,0,2.36-.17,3.66-.52s2.8-.84,4.52-1.5v4.48c-1.58.66-3.15,1.16-4.72,1.5s-3.18.52-4.84.52c-2.84,0-4.81-.71-5.89-2.12s-1.33-3.62-.74-6.62L82.42,0h5.77l-5.13,25.83Z"/>
    <path class="cls-5" d="M102.3,22.21c-.03.19-.05.4-.07.64s-.02.51-.02.81c0,1.42.45,2.52,1.35,3.29s2.22,1.16,3.97,1.16c1.17,0,2.43-.09,3.77-.27s2.63-.44,3.87-.79v4.45c-1.31.34-2.72.62-4.23.84s-3.01.33-4.51.33-2.91-.19-4.12-.56-2.25-.93-3.09-1.66-1.49-1.66-1.95-2.77-.68-2.41-.68-3.89c0-2.16.33-4.2,1-6.14s1.6-3.64,2.81-5.1,2.67-2.62,4.37-3.47,3.6-1.28,5.7-1.28c1.36,0,2.57.16,3.62.47s1.95.75,2.67,1.31,1.28,1.24,1.66,2.03.57,1.66.57,2.61c0,1.2-.24,2.29-.73,3.27s-1.27,1.81-2.34,2.51-2.48,1.23-4.21,1.62-3.82.57-6.29.57h-3.12ZM105.7,18.13c1.64,0,2.96-.09,3.96-.28s1.78-.43,2.33-.74.93-.66,1.11-1.07.28-.83.28-1.27c0-.83-.32-1.48-.96-1.97s-1.49-.73-2.55-.73c-.86,0-1.65.16-2.37.48s-1.36.75-1.91,1.3-1.03,1.19-1.43,1.92-.71,1.52-.95,2.34h2.48Z"/>
  </g>
  <line class="cls-1" x1="118.99" y1="32.14" x2="127.42" y2="32.14"/>
</svg>