<?xml version="1.0" encoding="UTF-8"?>
<svg id="_Слой_1" data-name="Слой 1" xmlns="http://www.w3.org/2000/svg" xmlns:xlink="http://www.w3.org/1999/xlink" viewBox="0 0 141.6 34.01">
  <defs>
    <style>
      .cls-1 {
        fill: url(#_Безымянный_градиент_735-6);
      }

      .cls-2 {
        fill: url(#_Безымянный_градиент_430);
        stroke: url(#_Безымянный_градиент_788);
        stroke-miterlimit: 10;
        stroke-width: 3px;
      }

      .cls-3 {
        fill: url(#_Безымянный_градиент_735-5);
      }

      .cls-4 {
        fill: url(#_Безымянный_градиент_735-3);
      }

      .cls-5 {
        fill: url(#_Безымянный_градиент_735-2);
      }

      .cls-6 {
        fill: url(#_Безымянный_градиент_735-4);
      }

      .cls-7 {
        fill: url(#_Безымянный_градиент_735);
      }
    </style>
    <linearGradient id="_Безымянный_градиент_430" data-name="Безымянный градиент 430" x1="187.09" y1="24.58" x2="189.79" y2="24.58" gradientTransform="translate(.01 -.01)" gradientUnits="userSpaceOnUse">
      <stop offset="0" stop-color="#554595"/>
      <stop offset="0" stop-color="#68049e"/>
      <stop offset="1" stop-color="#69009f"/>
    </linearGradient>
    <linearGradient id="_Безымянный_градиент_788" data-name="Безымянный градиент 788" x1="138.24" y1="21.97" x2="136.5" y2="27.19" gradientTransform="translate(.01 -.01)" gradientUnits="userSpaceOnUse">
      <stop offset="0" stop-color="#8ea0dd"/>
      <stop offset=".27" stop-color="#8e96db"/>
      <stop offset=".71" stop-color="#8e7dd6"/>
      <stop offset=".99" stop-color="#8e6ad3"/>
    </linearGradient>
    <linearGradient id="_Безымянный_градиент_735" data-name="Безымянный градиент 735" x1="26.92" y1="20.22" x2="17.04" y2="3.11" gradientUnits="userSpaceOnUse">
      <stop offset="0" stop-color="#8ea0dd"/>
      <stop offset=".51" stop-color="#8e6ad3"/>
    </linearGradient>
    <linearGradient id="_Безымянный_градиент_735-2" data-name="Безымянный градиент 735" x1="46.45" y1="26.36" x2="35.44" y2="7.29" xlink:href="#_Безымянный_градиент_735"/>
    <linearGradient id="_Безымянный_градиент_735-3" data-name="Безымянный градиент 735" x1="65.94" y1="21.05" x2="57.83" y2="7.01" xlink:href="#_Безымянный_градиент_735"/>
    <linearGradient id="_Безымянный_градиент_735-4" data-name="Безымянный градиент 735" x1="85.73" y1="26.8" x2="74.98" y2="8.19" xlink:href="#_Безымянный_градиент_735"/>
    <linearGradient id="_Безымянный_градиент_735-5" data-name="Безымянный градиент 735" x1="108.6" y1="24.15" x2="96.22" y2="2.72" xlink:href="#_Безымянный_градиент_735"/>
    <linearGradient id="_Безымянный_градиент_735-6" data-name="Безымянный градиент 735" x1="128.18" y1="24.53" x2="118.94" y2="8.53" xlink:href="#_Безымянный_градиент_735"/>
  </defs>
  <line class="cls-2" x1="133.17" y1="24.57" x2="141.6" y2="24.57"/>
  <g>
    <path class="cls-7" d="M33.78,7.7c0,1.27-.22,2.49-.67,3.67s-1.12,2.22-2.02,3.12-2.04,1.62-3.42,2.16-3,.81-4.86.81h-2.43l-1.46,7.38h-4.32L19.21,1.86h6.52c1.49,0,2.75.16,3.77.48s1.85.76,2.49,1.3,1.09,1.17,1.37,1.87.42,1.43.42,2.18ZM29.19,8.37c0-.38-.06-.74-.17-1.09s-.31-.66-.61-.93-.7-.49-1.21-.65-1.18-.25-2-.25h-2.41l-1.71,8.42h2.32c.88,0,1.68-.14,2.39-.43s1.32-.68,1.82-1.18.88-1.08,1.16-1.75.41-1.38.41-2.14Z"/>
    <path class="cls-5" d="M53.22,6.98c-.09.76-.21,1.51-.35,2.23s-.32,1.46-.54,2.2-.5,1.49-.82,2.27-.71,1.59-1.17,2.45-.99,1.78-1.59,2.75-1.3,2.02-2.08,3.15c-1.01,1.44-1.94,2.7-2.79,3.76s-1.66,1.97-2.41,2.72-1.45,1.37-2.11,1.85-1.29.86-1.92,1.13-1.23.46-1.82.56-1.19.16-1.8.16c-.43,0-.81-.01-1.14-.04s-.62-.06-.88-.1v-3.64c.34.06.69.1,1.06.13s.74.04,1.1.04c.49,0,.95-.06,1.36-.18s.84-.32,1.27-.62.88-.68,1.34-1.17,1-1.09,1.58-1.82l-3.53-17.86h4.46l2.51,13.8c.7-1.04,1.33-2,1.87-2.88s1.02-1.7,1.42-2.47.74-1.5,1.02-2.2.51-1.38.69-2.06.33-1.35.44-2.04.2-1.4.25-2.15h4.57Z"/>
    <path class="cls-4" d="M67.93,13.92c.16-.71.25-1.31.26-1.79s-.05-.86-.18-1.15-.33-.49-.59-.62-.59-.18-.98-.18c-.56,0-1.14.23-1.73.69s-1.15,1.07-1.69,1.83-1.01,1.62-1.43,2.6-.74,1.98-.95,3.01l-1.28,6.52h-4.39l1.9-9.54c.07-.36.14-.76.21-1.2s.14-.96.22-1.59.16-1.39.25-2.28.21-1.97.33-3.25h3.48l-.18,3.5c.26-.47.59-.93.99-1.4s.87-.88,1.4-1.25,1.12-.67,1.78-.9,1.39-.34,2.17-.34c1.02,0,1.89.16,2.61.49s1.28.8,1.68,1.42.64,1.39.71,2.29-.02,1.95-.29,3.12h-4.32Z"/>
    <path class="cls-6" d="M81.43,25.15c-.63,0-1.2-.03-1.7-.09s-.93-.12-1.29-.19l-.07.32-1.34,6.63h-4.29l3.32-16.52c.07-.36.14-.76.2-1.2s.13-.96.21-1.59.16-1.39.25-2.28.21-1.97.33-3.25h3.5l-.16,3.25c.27-.41.61-.83,1.03-1.26s.9-.82,1.44-1.17,1.15-.64,1.81-.87,1.37-.34,2.14-.34c1.75,0,3.06.54,3.96,1.62s1.34,2.6,1.34,4.57c0,1.8-.24,3.46-.72,4.97s-1.18,2.82-2.09,3.91-2.03,1.95-3.36,2.57-2.83.92-4.52.92ZM87.66,13.06c0-.94-.16-1.65-.48-2.14s-.81-.74-1.47-.74c-.35,0-.73.1-1.12.3s-.79.47-1.19.82-.77.75-1.14,1.21-.71.96-1.01,1.48-.57,1.06-.79,1.61-.39,1.09-.49,1.62l-.83,4.2c.25.09.58.18,1.01.27s.89.13,1.4.13c.83,0,1.56-.15,2.19-.45s1.17-.69,1.63-1.18.83-1.04,1.12-1.66.53-1.25.7-1.9.3-1.28.37-1.9.11-1.18.11-1.67Z"/>
    <path class="cls-3" d="M101.4,19.37c-.16.84-.1,1.47.19,1.89s.83.62,1.6.62c.86,0,1.77-.13,2.74-.39s2.1-.63,3.39-1.12v3.36c-1.18.49-2.36.87-3.54,1.12s-2.39.39-3.63.39c-2.13,0-3.61-.53-4.42-1.59s-1-2.72-.55-4.97l3.74-18.69h4.32l-3.85,19.37Z"/>
    <path class="cls-1" d="M118.82,17.38c-.02.14-.04.3-.05.48s-.02.38-.02.61c0,1.07.34,1.89,1.01,2.47s1.67.87,2.98.87c.88,0,1.82-.07,2.83-.2s1.97-.33,2.9-.59v3.34c-.98.26-2.04.47-3.17.63s-2.26.25-3.38.25-2.18-.14-3.09-.42-1.69-.7-2.32-1.25-1.12-1.24-1.46-2.07-.51-1.8-.51-2.92c0-1.62.25-3.15.75-4.61s1.2-2.73,2.11-3.82,2-1.96,3.28-2.6,2.7-.96,4.27-.96c1.02,0,1.92.12,2.72.35s1.46.56,2,.98.96.93,1.25,1.52.43,1.25.43,1.96c0,.9-.18,1.72-.54,2.45s-.95,1.36-1.76,1.88-1.86.93-3.16,1.21-2.87.43-4.72.43h-2.34ZM121.37,14.33c1.23,0,2.22-.07,2.97-.21s1.33-.33,1.75-.55.69-.5.83-.8.21-.62.21-.95c0-.62-.24-1.11-.72-1.48s-1.12-.54-1.92-.54c-.64,0-1.24.12-1.78.36s-1.02.57-1.43.98-.77.89-1.07,1.44-.54,1.14-.71,1.76h1.86Z"/>
  </g>
  <text/>
</svg>